# xmcd
#
# Track frame offsets: 
#        150
#        15333
#        30770
#        50062
#        65981
#        91593
#        104997
#        122092
#        138845
#        155140
#        182069
#        199259
#        215872
#        230840
#        247264
#        262635
#        277255
#        294317
#        311344
#        336734
#
# Disc length: 4635 seconds
#
# Revision: 2
# Processed by: cddbd v1.5.2PL0 Copyright (c) Steve Scherf et al.
# Submitted via: ExactAudioCopy v1.3
#
DISCID=3b121914
DTITLE=Various Artists (Priester) - Italo Fresh Hits 2007 Vol.01
DYEAR=2007
DGENRE=Italo Dance
TTITLE0=Marquess - El Temperamento (Spanish Single Version)
TTITLE1=Cascada - Ready For Love (Radio Edit)
TTITLE2=DJ Carpi - One More Time (Radio Edit)
TTITLE3=Stefy NRG - I Need My Music (GITH Edit)
TTITLE4=Red DJ - Dance Is My Love (Pensando and Ripensando Mix)
TTITLE5=Sixty-9 Vs. Discodrive Feat. DJ Fierce - Rainbow (Electrolaz S
TTITLE5=creen Mix)
TTITLE6=The Twins - Ballet Dancer (Radio-Version)
TTITLE7=Dhany - Miles Of Love (Radio Edit)
TTITLE8=Winman - Fade To Grey 2007 (Original Radio Mix)
TTITLE9=FR Feat. Jenny B. - Love Is The Music (Original Radio Edit) 
TTITLE10=DJ Sanny J Vs. DJ Zulan Feat. MCW - The Girl (D. Valenziano R
TTITLE10=adio Mix)
TTITLE11=Camelot - Ginevra (Italo Radio Edit)
TTITLE12=Bob Sinclar and Cutee B Feat. Dollarman and Big Ali and Makedah - R
TTITLE12=ock This Party (Everybody Dance Now) (Single Mix)
TTITLE13=IC3M4N Feat. Andy Lopez - Passion (Radio Mix)
TTITLE14=Antares Vs. Bigroom Society - Ride On A Meteorite (Bigroom So
TTITLE14=ciety Radio Edit)
TTITLE15=Rico Bass Vs. Deejay Bonito - Cisko Disco (DJ Radio Mix)
TTITLE16=Gigi D'Agostino - The Rain (Version 3)
TTITLE17=DJ Lhasa - Arms Of Heaven (Ma.Bra. Radio Mix)
TTITLE18=Nick Romano - Dandy (Old Skool Rave Mix)
TTITLE19=Fedde Le Grand - Put Your Hands Up For Detroit (Radio Edit) 
EXTD=Priester CD 02
EXTT0=
EXTT1=
EXTT2=
EXTT3=
EXTT4=
EXTT5=
EXTT6=
EXTT7=
EXTT8=
EXTT9=
EXTT10=
EXTT11=
EXTT12=
EXTT13=
EXTT14=
EXTT15=
EXTT16=
EXTT17=
EXTT18=
EXTT19=
PLAYORDER=
